<?xml version="1.0" encoding="UTF-8" standalone="no"?>
<svg
   xmlns:dc="http://purl.org/dc/elements/1.1/"
   xmlns:cc="http://creativecommons.org/ns#"
   xmlns:rdf="http://www.w3.org/1999/02/22-rdf-syntax-ns#"
   xmlns:svg="http://www.w3.org/2000/svg"
   xmlns="http://www.w3.org/2000/svg"
   xmlns:sodipodi="http://sodipodi.sourceforge.net/DTD/sodipodi-0.dtd"
   xmlns:inkscape="http://www.inkscape.org/namespaces/inkscape"
   height="237"
   width="276"
   version="1.1"
   x="0px"
   y="0px"
   viewBox="0 0 80.960008 69.520021"
   enable-background="new 0 0 88 88"
   xml:space="preserve"
   id="svg6527"
   sodipodi:docname="coaching.svg"
   style="fill:#ff6464"
   inkscape:version="0.92.4 (5da689c313, 2019-01-14)"><metadata
     id="metadata6533"><rdf:RDF><cc:Work
         rdf:about=""><dc:format>image/svg+xml</dc:format><dc:type
           rdf:resource="http://purl.org/dc/dcmitype/StillImage" /><dc:title></dc:title></cc:Work></rdf:RDF></metadata><defs
     id="defs6531" /><sodipodi:namedview
     pagecolor="#ffffff"
     bordercolor="#666666"
     borderopacity="1"
     objecttolerance="10"
     gridtolerance="10"
     guidetolerance="10"
     inkscape:pageopacity="0"
     inkscape:pageshadow="2"
     inkscape:window-width="1920"
     inkscape:window-height="2096"
     id="namedview6529"
     showgrid="false"
     inkscape:zoom="0.78666667"
     inkscape:cx="150"
     inkscape:cy="150"
     inkscape:window-x="1920"
     inkscape:window-y="27"
     inkscape:window-maximized="0"
     inkscape:current-layer="svg6527" /><g
     id="g6525"
     transform="translate(-3.5200001,-9.0933364)"><g
       id="g6523"><path
         d="m 43.696732,42.107723 c 0.84542,1.035492 2.413887,1.213627 3.491062,0.320107 l 6.412441,-5.348606 c -1.322033,3.301273 -1.506264,5.860626 -0.545883,7.628086 -0.963566,2.899574 -3.623688,9.468883 -8.562977,11.930656 -1.212707,0.611229 -1.710674,2.102936 -1.108318,3.327763 0.632347,1.264503 2.146774,1.697605 3.328575,1.109501 6.503151,-3.252041 9.787369,-11.065419 10.98402,-14.610958 l 6.853115,0.7854 -0.475349,9.13266 c -0.06934,1.367637 0.983749,2.535866 2.34845,2.605335 l 0.127006,0.0032 c 1.321968,0 2.410545,-1.033035 2.47789,-2.351448 l 0.586243,-11.459617 c 0.06853,-1.30317 -0.893479,-2.43916 -2.190461,-2.587593 l -2.007415,-0.229897 1.730041,-8.747833 h 7.810249 c 1.365891,0 2.477082,-1.111252 2.477082,-2.477143 0,-1.365888 -1.111191,-2.47714 -2.477082,-2.47714 H 56.856213 c -0.576928,0 -1.142174,0.203159 -1.593724,0.574993 l -11.246841,9.389048 c -1.043842,0.875606 -1.185719,2.439907 -0.318916,3.48344 z"
         id="path6509"
         inkscape:connector-curvature="0" /><circle
         cx="61.579926"
         cy="22.306824"
         r="4.8618236"
         id="circle6511" /><path
         d="m 17.65295,30.024132 h 11.380595 c 1.729661,0 3.131845,-1.402123 3.131845,-3.13185 0,-1.729724 -1.402183,-3.131847 -3.131845,-3.131847 -0.27744,0 -0.541508,0.0476 -0.797644,0.115448 0.0017,-0.03923 0.01162,-0.07597 0.01162,-0.115448 0,-1.405245 -1.139177,-2.544361 -2.544424,-2.544361 -0.29268,0 -0.569307,0.05947 -0.831001,0.150433 -0.409506,-1.730601 -1.960749,-3.019898 -3.816542,-3.019898 -2.168092,0 -3.925806,1.757713 -3.925806,3.925743 0,0.535509 0.107952,1.045406 0.301991,1.510323 -1.624523,0.115448 -2.910635,1.455599 -2.910635,3.109607 0,1.729727 1.402184,3.13185 3.131847,3.13185 z"
         id="path6513"
         inkscape:connector-curvature="0" /><path
         d="m 38.159332,18.346609 h 8.422169 c 1.280052,0 2.317711,-1.037537 2.317711,-2.317713 0,-1.279927 -1.037659,-2.317712 -2.317711,-2.317712 -0.205345,0 -0.400757,0.03536 -0.590298,0.08546 0.0013,-0.02899 0.0086,-0.0561 0.0086,-0.08546 0,-1.039785 -0.84306,-1.882907 -1.882969,-1.882907 -0.216656,0 -0.421315,0.04398 -0.614975,0.11145 -0.303055,-1.280802 -1.451039,-2.2348749 -2.824425,-2.2348749 -1.60453,0 -2.905262,1.3007929 -2.905262,2.9051999 0,0.396197 0.0799,0.773653 0.223461,1.117624 -1.202209,0.08546 -2.154034,1.077268 -2.154034,2.30122 0,1.280176 1.037724,2.317713 2.317711,2.317713 z"
         id="path6515"
         inkscape:connector-curvature="0" /><path
         d="m 10.114638,69.20459 c -1.0394093,0.523765 -1.4661567,1.802322 -0.949887,2.852104 0.542038,1.084076 1.839855,1.454727 2.852785,0.950943 5.573568,-2.787247 8.388371,-9.483753 9.41391,-12.522392 l 5.87356,0.673072 -0.407444,7.827126 c -0.137615,2.715271 4.101028,3.040146 4.226046,0.598228 l 0.521703,-10.199432 c 0.05879,-1.116753 -0.765718,-2.090565 -1.877283,-2.217632 l -1.72048,-0.197037 1.48271,-7.49752 h 6.693817 c 1.566487,0 2.741898,-1.704861 1.768208,-3.356621 -0.333977,-0.566746 -0.971501,-0.889351 -1.629269,-0.889351 H 20.712082 c -0.49453,0 -0.978937,0.174171 -1.365952,0.492779 l -9.6392465,8.046898 c -0.8946,0.750538 -1.0162335,2.091312 -0.2733155,2.985412 0.72673,0.890435 2.071604,1.038151 2.992036,0.274376 l 5.495851,-4.583946 c -1.133054,2.829357 -1.290922,5.022877 -0.467853,6.537697 -0.82588,2.485138 -3.105734,8.115494 -7.338964,10.225296 z"
         id="path6517"
         inkscape:connector-curvature="0" /><path
         d="m 26.563337,35.851524 c -3.673044,-1.464096 -7.13212,1.995106 -5.668087,5.668209 0.395134,0.991307 1.199024,1.795197 2.19027,2.190274 3.673355,1.464092 7.132494,-1.995358 5.668087,-5.668465 -0.395199,-0.991054 -1.199026,-1.794945 -2.19027,-2.190018 z"
         id="path6519"
         inkscape:connector-curvature="0" /><path
         d="m 42.321407,62.594051 c -1.975425,0 -3.582397,1.607029 -3.582397,3.582394 v 8.536308 c 0,0.276375 -0.235394,0.511772 -0.511769,0.511772 H 4.0000005 c 0.8085752,1.064522 1.6683779,2.088059 2.5588541,3.070626 H 38.227241 c 1.975426,0 3.582394,-1.606911 3.582394,-3.582398 v -8.536308 c 0,-0.276375 0.225151,-0.511764 0.511772,-0.511764 H 82.781982 C 83.232346,64.661629 83.631538,63.638084 84,62.594051 Z"
         id="path6521"
         inkscape:connector-curvature="0" /></g></g></svg>