<?xml version="1.0" encoding="UTF-8" standalone="no"?>
<svg
   xmlns:dc="http://purl.org/dc/elements/1.1/"
   xmlns:cc="http://creativecommons.org/ns#"
   xmlns:rdf="http://www.w3.org/1999/02/22-rdf-syntax-ns#"
   xmlns:svg="http://www.w3.org/2000/svg"
   xmlns="http://www.w3.org/2000/svg"
   xmlns:sodipodi="http://sodipodi.sourceforge.net/DTD/sodipodi-0.dtd"
   xmlns:inkscape="http://www.inkscape.org/namespaces/inkscape"
   height="242"
   width="243"
   version="1.0"
   x="0px"
   y="0px"
   viewBox="0 0 81.000019 80.666686"
   enable-background="new 0 0 100 100"
   xml:space="preserve"
   id="svg5263"
   sodipodi:docname="bug.svg"
   style="fill:#ff6464"
   inkscape:version="0.92.4 (5da689c313, 2019-01-14)"><metadata
     id="metadata5269"><rdf:RDF><cc:Work
         rdf:about=""><dc:format>image/svg+xml</dc:format><dc:type
           rdf:resource="http://purl.org/dc/dcmitype/StillImage" /><dc:title></dc:title></cc:Work></rdf:RDF></metadata><defs
     id="defs5267" /><sodipodi:namedview
     pagecolor="#ffffff"
     bordercolor="#666666"
     borderopacity="1"
     objecttolerance="10"
     gridtolerance="10"
     guidetolerance="10"
     inkscape:pageopacity="0"
     inkscape:pageshadow="2"
     inkscape:window-width="1920"
     inkscape:window-height="2096"
     id="namedview5265"
     showgrid="false"
     inkscape:showpageshadow="false"
     inkscape:zoom="0.78666667"
     inkscape:cx="150"
     inkscape:cy="150"
     inkscape:window-x="1920"
     inkscape:window-y="27"
     inkscape:window-maximized="0"
     inkscape:current-layer="svg5263" /><path
     d="m 71.229662,66.513691 c 1.741,-2.637 2.77,-5.788 2.77,-9.18 0,-9.206 -7.461,-16.667 -16.666,-16.667 -0.18,0 -0.346,0.046 -0.524,0.052 -0.13,-0.904 -0.234,-1.822 -0.413,-2.695 l 10.94,-4.531 -2.552,-6.158 -10.222,4.238 c -2.236,-5.938 -5.7,-10.775 -9.896,-13.867 l 6.002,-14.4860084 -6.157,-2.55300281 -5.805,14.01101121 c -1.517,-0.443 -3.092,-0.678 -4.703,-0.678 -1.611,0 -3.188,0.234 -4.704,0.678 l -5.804,-14.01101121 -6.159,2.55200281 6.003,14.4860084 c -4.199,3.092 -7.66,7.93 -9.896,13.867 l -10.2249967,-4.238 -2.55199907,6.158 10.94399577,4.531 c -0.391,1.928 -0.681,3.92 -0.824,5.977 H 0.66966623 v 6.667 H 10.786662 c 0.144,2.058 0.434,4.05 0.824,5.977 l -10.94099577,4.531 2.54899907,6.159 10.2249967,-4.238 c 3.935,10.455 11.663,17.570995 20.56,17.570995 6.019,0 11.49,-3.287995 15.628,-8.639995 2.314,1.218 4.909,1.973 7.702,1.973 3.395,0 6.546,-1.028 9.183,-2.773 l 9.436,9.439995 4.714,-4.713995 z m -37.226,-45.847 c 4.346,0 8.353,2.845 11.357,7.383 -7.168,3.418 -15.547,3.418 -22.715,0 3.001,-4.544 7.012,-7.383 11.358,-7.383 z m 10.504,47.188 c -2.891,3.821 -6.563,6.146 -10.504,6.146 -9.033,0 -16.667,-12.213 -16.667,-26.666 0,-4.838 0.869,-9.408 2.347,-13.373 9.037,4.369 19.597,4.375 28.643,0.007 0.947,2.539 1.608,5.345 1.986,8.301 -5.684,2.648 -9.646,8.377 -9.646,15.064 0,4.01 1.478,7.643 3.841,10.521 z m 12.826,-0.521 c -5.524,0 -10,-4.479 -10,-10 0,-5.527 4.476,-10 10,-10 5.523,0 10,4.473 10,10 0,5.521 -4.477,10 -10,10 z"
     id="path5261"
     inkscape:connector-curvature="0" /></svg>