<?xml version="1.0" encoding="UTF-8" standalone="no"?>
<svg
   xmlns:dc="http://purl.org/dc/elements/1.1/"
   xmlns:cc="http://creativecommons.org/ns#"
   xmlns:rdf="http://www.w3.org/1999/02/22-rdf-syntax-ns#"
   xmlns:svg="http://www.w3.org/2000/svg"
   xmlns="http://www.w3.org/2000/svg"
   xmlns:sodipodi="http://sodipodi.sourceforge.net/DTD/sodipodi-0.dtd"
   xmlns:inkscape="http://www.inkscape.org/namespaces/inkscape"
   height="293"
   width="282"
   version="1.1"
   x="0px"
   y="0px"
   viewBox="0 0 120.31994 125.01331"
   style="fill:#ff6464"
   xml:space="preserve"
   id="svg949"
   sodipodi:docname="onlineclasses.svg"
   inkscape:version="0.92.4 (5da689c313, 2019-01-14)"><metadata
     id="metadata955"><rdf:RDF><cc:Work
         rdf:about=""><dc:format>image/svg+xml</dc:format><dc:type
           rdf:resource="http://purl.org/dc/dcmitype/StillImage" /><dc:title></dc:title></cc:Work></rdf:RDF></metadata><defs
     id="defs953" /><sodipodi:namedview
     pagecolor="#ffffff"
     bordercolor="#666666"
     borderopacity="1"
     objecttolerance="10"
     gridtolerance="10"
     guidetolerance="10"
     inkscape:pageopacity="0"
     inkscape:pageshadow="2"
     inkscape:window-width="1920"
     inkscape:window-height="2096"
     id="namedview951"
     showgrid="false"
     inkscape:showpageshadow="false"
     inkscape:zoom="0.78666667"
     inkscape:cx="150"
     inkscape:cy="150"
     inkscape:window-x="1920"
     inkscape:window-y="27"
     inkscape:window-maximized="0"
     inkscape:current-layer="svg949" /><g
     id="g947"
     transform="translate(-4.2666665,-1.2800004)"><g
       id="g939"><g
         id="g937"><path
           d="M 123.2,34.5 72.6,3.7 C 72.3,3.5 72,3.4 71.7,3.4 L 12.5,2 C 10.7,2 10,4.3 11.5,5.3 L 31,17.2 22.4,46.6 c 2.1,0.3 4.2,0.7 6.2,1.3 11.7,3.5 20.8,10.6 24.5,20.1 v 0 0 c 8.2,-5.9 19.7,-7.1 31.5,-3.6 2.1,0.6 4.1,1.4 6,2.3 l 8.6,-29.4 22.1,0.5 -1.7,5.9 c -0.9,0 -1.8,0.6 -2.1,1.5 -0.2,0.7 0,1.5 0.4,2 -1.3,2.2 -5.2,8.7 -6.9,14.5 0,0 0.4,1.4 3.1,2.3 2.8,0.7 3.9,-0.3 3.9,-0.3 1.7,-5.8 2,-13.4 2.1,-15.9 0.7,-0.2 1.2,-0.7 1.4,-1.4 0.3,-1 -0.1,-1.9 -1,-2.4 l 1.8,-6.2 c 1.8,-0.3 2.3,-2.4 0.9,-3.3 z M 85.5,56.4 C 75.4,53.8 65.3,53.5 56.4,57.2 51,49.3 42.3,44 32.4,40.8 l 5.7,-19.3 24,14.7 c 0.3,0.2 0.6,0.3 0.9,0.3 l 28.2,0.7 z"
           id="path935"
           inkscape:connector-curvature="0" /></g></g><g
       id="g945"><g
         id="g943"><path
           d="m 87.8,72.7 c -0.3,-0.2 -0.7,-0.3 -1,-0.4 0.6,2.7 0.9,5.6 0.9,8.5 0,4.1 -0.6,8.1 -1.8,11.8 H 71.5 c 0.6,-3.7 0.9,-7.7 0.9,-11.8 0,-2.1 -0.1,-4.1 -0.2,-6.1 -0.1,-1.9 -0.4,-3.7 -0.6,-5.5 -2.4,0 -4.7,0.3 -6.8,0.8 0.1,0.3 0.1,0.7 0.2,1 0.2,1.6 0.4,3.3 0.5,5 0.1,1.5 0.2,3.1 0.2,4.7 0,4.2 -0.3,8.1 -1,11.8 H 34 C 33.9,91.8 33.8,91 33.7,90.3 33.5,88.8 33.3,87.2 33.2,85.6 33.1,84 33,82.5 33,80.8 33,76.6 33.3,72.7 34,69 h 12.3 c -1.2,-2.5 -2.9,-4.8 -5.1,-6.8 h -5.6 c 0.4,-1.2 0.8,-2.3 1.2,-3.4 -1.9,-1.2 -3.9,-2.2 -6.1,-3.1 -0.8,2 -1.5,4.2 -2.1,6.5 h -13 c 1.8,-3.3 4.1,-6.2 6.7,-8.8 -0.2,0 -0.5,-0.1 -0.7,-0.1 l -7.5,-1 C 11.7,55.3 9.6,58.6 8,62.2 7.7,62.8 7.5,63.4 7.2,64.1 5.1,69.3 4,74.9 4,80.8 c 0,5.9 1.1,11.5 3.2,16.7 0.2,0.6 0.5,1.3 0.8,1.9 7.1,15.8 23,26.7 41.3,26.7 18.3,0 34.2,-11 41.3,-26.7 0.3,-0.6 0.5,-1.2 0.8,-1.9 2.1,-5.2 3.2,-10.8 3.2,-16.7 0,-1.7 -0.1,-3.3 -0.3,-4.9 z m -77,8 c 0,-4.1 0.6,-8.1 1.8,-11.8 H 27 c -0.6,3.7 -0.9,7.7 -0.9,11.8 0,2 0.1,3.9 0.2,5.9 0.1,2 0.4,4 0.7,5.9 H 12.6 C 11.4,88.8 10.8,84.8 10.8,80.7 Z m 4.8,18.6 h 12.9 c 0.2,0.7 0.4,1.3 0.5,2 0.5,1.8 1.2,3.5 1.8,5.2 1.9,4.5 4.2,8.2 6.9,11 -9.4,-3 -17.4,-9.6 -22.1,-18.2 z M 49.3,116 c -4.2,0 -8.6,-4.3 -11.8,-11.6 -0.7,-1.6 -1.3,-3.3 -1.9,-5.2 H 63 C 59.9,109.7 54.4,116 49.3,116 Z m 11.5,1.5 c 4,-4.2 7.3,-10.5 9.3,-18.2 H 83 c -4.8,8.6 -12.7,15.2 -22.2,18.2 z"
           id="path941"
           inkscape:connector-curvature="0" /></g></g></g></svg>