<?xml version="1.0" encoding="UTF-8" standalone="no"?>
<svg
   xmlns:dc="http://purl.org/dc/elements/1.1/"
   xmlns:cc="http://creativecommons.org/ns#"
   xmlns:rdf="http://www.w3.org/1999/02/22-rdf-syntax-ns#"
   xmlns:svg="http://www.w3.org/2000/svg"
   xmlns="http://www.w3.org/2000/svg"
   xmlns:sodipodi="http://sodipodi.sourceforge.net/DTD/sodipodi-0.dtd"
   xmlns:inkscape="http://www.inkscape.org/namespaces/inkscape"
   height="273"
   width="284"
   viewBox="0 0 60.586672 58.240009"
   x="0px"
   y="0px"
   version="1.1"
   id="svg5903"
   sodipodi:docname="interview.svg"
   style="fill:#ff6464"
   inkscape:version="0.92.4 (5da689c313, 2019-01-14)">
  <metadata
     id="metadata5909">
    <rdf:RDF>
      <cc:Work
         rdf:about="">
        <dc:format>image/svg+xml</dc:format>
        <dc:type
           rdf:resource="http://purl.org/dc/dcmitype/StillImage" />
        <dc:title>interview-job-meeting-boss-reunion</dc:title>
      </cc:Work>
    </rdf:RDF>
  </metadata>
  <defs
     id="defs5907" />
  <sodipodi:namedview
     pagecolor="#ffffff"
     bordercolor="#666666"
     borderopacity="1"
     objecttolerance="10"
     gridtolerance="10"
     guidetolerance="10"
     inkscape:pageopacity="0"
     inkscape:pageshadow="2"
     inkscape:window-width="1920"
     inkscape:window-height="2096"
     id="namedview5905"
     showgrid="false"
     inkscape:zoom="0.78666667"
     inkscape:cx="150"
     inkscape:cy="150"
     inkscape:window-x="1920"
     inkscape:window-y="27"
     inkscape:window-maximized="0"
     inkscape:current-layer="svg5903" />
  <title
     id="title5877">interview-job-meeting-boss-reunion</title>
  <g
     id="g5901"
     transform="translate(-1.7066667,-2.773334)">
    <rect
       x="15"
       y="29"
       width="2"
       height="2"
       id="rect5879" />
    <path
       d="m 59,44 a 2.966,2.966 0 0 0 -1,0.184 V 44 a 5.989,5.989 0 0 0 -2.374,-4.769 9,9 0 1 0 -7.252,0 A 5.989,5.989 0 0 0 46,44 v 1 h -5.661 a 4,4 0 0 0 -3.881,3.03 L 36.216,49 H 27.784 L 27.542,48.03 A 4,4 0 0 0 23.661,45 H 18 v -1 a 5.989,5.989 0 0 0 -2.374,-4.769 9,9 0 1 0 -7.252,0 A 5.989,5.989 0 0 0 6,44 v 0.184 A 2.966,2.966 0 0 0 5,44 3,3 0 0 0 2,47 v 13 a 1,1 0 0 0 1,1 h 14 a 1,1 0 0 0 1,-1 v -5 h 11 v 5 a 1,1 0 0 0 1,1 h 4 a 1,1 0 0 0 1,-1 v -5 h 11 v 5 a 1,1 0 0 0 1,1 h 14 a 1,1 0 0 0 1,-1 V 47 A 3,3 0 0 0 59,44 Z M 45,31 a 7,7 0 1 1 7,7 7.008,7.008 0 0 1 -7,-7 z M 38.4,48.515 A 2,2 0 0 1 40.339,47 H 47 a 1,1 0 0 0 0.8,-0.4 l 2.4,-3.2 a 1.034,1.034 0 0 1 1.7,0.153 0.982,0.982 0 0 1 -0.1,1.047 L 48.5,49 H 38.277 Z M 23.661,47 A 2,2 0 0 1 25.6,48.515 L 25.721,49 H 15.5 l -3.3,-4.4 a 0.98,0.98 0 0 1 -0.1,-1.047 1.035,1.035 0 0 1 1.7,-0.154 l 2.4,3.2 a 1,1 0 0 0 0.8,0.4 z M 5,31 a 7,7 0 1 1 7,7 7.008,7.008 0 0 1 -7,-7 z M 4,47 a 1,1 0 0 1 2,0 V 59 H 4 Z m 4,8 h 2 v 4 H 8 Z m 8,4 h -4 v -4 h 1 a 1,1 0 0 0 0,-2 H 8 v -9 a 3.99,3.99 0 0 1 7.755,-1.332 L 15.4,42.2 A 3,3 0 0 0 10.317,42.659 2.983,2.983 0 0 0 10.6,45.8 l 3.6,4.8 A 1,1 0 0 0 15,51 h 1 z m 2,-8 h 28 v 2 H 18 Z m 15,8 h -2 v -4 h 2 z m 15,-5 v -3 h 1 a 1,1 0 0 0 0.8,-0.4 l 3.6,-4.8 a 3,3 0 1 0 -4.8,-3.6 l -0.352,0.469 A 3.99,3.99 0 0 1 56,44 v 9 h -5 a 1,1 0 0 0 0,2 h 1 v 4 h -4 z m 6,5 v -4 h 2 v 4 z m 6,0 H 58 V 47 a 1,1 0 0 1 2,0 z"
       id="path5881"
       inkscape:connector-curvature="0" />
    <rect
       x="47"
       y="29"
       width="2"
       height="2"
       id="rect5883" />
    <path
       d="M 13,10.5 A 1.5,1.5 0 1 0 11.5,12 1.5,1.5 0 0 0 13,10.5 Z M 11.5,11 A 0.5,0.5 0 1 1 12,10.5 0.5,0.5 0 0 1 11.5,11 Z"
       id="path5885"
       inkscape:connector-curvature="0" />
    <path
       d="M 16.5,12 A 1.5,1.5 0 1 0 15,10.5 1.5,1.5 0 0 0 16.5,12 Z m 0,-2 A 0.5,0.5 0 1 1 16,10.5 0.5,0.5 0 0 1 16.5,10 Z"
       id="path5887"
       inkscape:connector-curvature="0" />
    <path
       d="M 21.5,12 A 1.5,1.5 0 1 0 20,10.5 1.5,1.5 0 0 0 21.5,12 Z m 0,-2 A 0.5,0.5 0 1 1 21,10.5 0.5,0.5 0 0 1 21.5,10 Z"
       id="path5889"
       inkscape:connector-curvature="0" />
    <path
       d="m 11.567,19.9 a 1,1 0 0 0 1.058,-0.12 L 17.351,16 H 23 a 4,4 0 0 0 4,-4 V 9 A 4,4 0 0 0 23,5 H 10 A 4,4 0 0 0 6,9 v 3 a 4,4 0 0 0 4,4 h 1 v 3 a 1,1 0 0 0 0.567,0.9 z M 10,14 A 2,2 0 0 1 8,12 V 9 a 2,2 0 0 1 2,-2 h 13 a 2,2 0 0 1 2,2 v 3 a 2,2 0 0 1 -2,2 h -6 a 1,1 0 0 0 -0.625,0.219 L 13,16.919 V 15 a 1,1 0 0 0 -1,-1 z"
       id="path5891"
       inkscape:connector-curvature="0" />
    <path
       d="m 46.293,12.293 a 1.831,1.831 0 0 1 -2.586,0 1,1 0 0 0 -1.414,1.414 3.834,3.834 0 0 0 5.414,0 1,1 0 0 0 -1.414,-1.414 z"
       id="path5893"
       inkscape:connector-curvature="0" />
    <path
       d="m 42.62,10.92 a 0.99,0.99 0 0 0 1.3,-1.3 1.032,1.032 0 0 0 -0.21,-0.33 1.047,1.047 0 0 0 -1.42,0 1.032,1.032 0 0 0 -0.21,0.33 0.99,0.99 0 0 0 0.21,1.09 1.155,1.155 0 0 0 0.33,0.21 z"
       id="path5895"
       inkscape:connector-curvature="0" />
    <path
       d="m 47.71,9.29 a 1.006,1.006 0 0 0 -0.9,-0.27 0.6,0.6 0 0 0 -0.19,0.06 0.757,0.757 0 0 0 -0.18,0.09 l -0.15,0.12 a 1.032,1.032 0 0 0 -0.21,0.33 0.99,0.99 0 0 0 0.21,1.09 1.155,1.155 0 0 0 0.33,0.21 0.942,0.942 0 0 0 0.76,0 1.155,1.155 0 0 0 0.33,-0.21 0.99,0.99 0 0 0 0.21,-1.09 1.032,1.032 0 0 0 -0.21,-0.33 z"
       id="path5897"
       inkscape:connector-curvature="0" />
    <path
       d="m 45,3 a 8,8 0 1 0 2.233,15.679 l 4.492,1.283 A 1.036,1.036 0 0 0 52,20 1,1 0 0 0 53,19 V 10 A 0.976,0.976 0 0 0 52.991,9.868 8.022,8.022 0 0 0 45,3 Z m 6,14.675 -3.5,-1 A 1,1 0 0 0 46.908,16.689 5.985,5.985 0 1 1 51,10.069 Z"
       id="path5899"
       inkscape:connector-curvature="0" />
  </g>
</svg>
