<?xml version="1.0" encoding="iso-8859-1"?>
<!-- Generator: Adobe Illustrator 19.0.0, SVG Export Plug-In . SVG Version: 6.00 Build 0)  -->
<svg fill="#FF6464" xmlns="http://www.w3.org/2000/svg" xmlns:xlink="http://www.w3.org/1999/xlink" version="1.1" id="Layer_1" x="0px" y="0px" viewBox="0 0 512 512" style="enable-background:new 0 0 512 512;" xml:space="preserve" width="512" height="512">
<g>
	<g>
		<path d="M451.34,306.002c-14.207-6.71-29.421-10.112-45.221-10.112c-18.045,0-35.047,4.541-49.93,12.532    c-22.999-19.746-52.376-34.487-85.162-42.901c0.799-0.508,1.603-1.008,2.392-1.535c26.329-17.56,43.831-43.027,49.007-70.326    c10.493-2.812,19.633-10.017,25.367-20.347c7.535-13.575,7.768-29.756,0.607-42.228c-1.796-3.128-5.128-5.057-8.733-5.057    c-0.004,0-0.007,0-0.011,0l-15.026,0.017c0.913-34.59-8.875-63.992-28.587-85.522C275.084,17.63,243.078,4.5,208.233,4.5    c-30.285,0-60.269,9.984-82.263,27.393c-24.876,19.689-38.575,47.928-38.575,79.512v14.652H72.868    c-3.604,0-6.934,1.926-8.731,5.051c-7.342,12.771-7.197,29.202,0.379,42.88c5.504,9.938,14.308,16.896,24.451,19.671    c4.145,22.188,16.413,42.975,35.579,59.787c5.07,4.448,10.49,8.473,16.168,12.049c-18.658,4.567-35.895,10.939-51.48,19.076    c-4.931,2.575-6.841,8.658-4.267,13.588c1.797,3.442,5.305,5.413,8.936,5.413c1.57,0,3.164-0.369,4.652-1.146    c19.831-10.354,42.742-17.604,68.183-21.613l12.719,34.655L159.27,420.453c-0.342,1.777-0.198,3.613,0.415,5.316l7.37,20.454    c-30.184-1.671-59.828-5.431-88.111-11.164v-39.665c0-5.562-4.509-10.07-10.071-10.07c-5.562,0-10.071,4.509-10.071,10.07v35.198    c-13.128-3.173-25.907-6.778-38.241-10.808c2.007-25.811,9.507-48.782,22.335-68.376c3.046-4.654,1.744-10.896-2.909-13.942    c-4.652-3.045-10.894-1.744-13.942,2.909C9.952,364.954,1.192,393.937,0.007,426.52c-0.161,4.428,2.592,8.441,6.78,9.886    c52.297,18.042,112.645,28.631,174.517,30.622c0.013,0,0.026,0,0.039,0c7.434,0.231,14.96,0.348,22.371,0.348l2.42-0.004    l2.489,0.004c7.411,0,14.938-0.117,22.373-0.348c0.012,0,0.023,0,0.036,0c29.178-0.937,58.006-3.79,85.827-8.439    c9.516,14.916,22.789,27.472,38.954,36.199c15.357,8.317,32.753,12.712,50.307,12.712C464.503,507.5,512,460.03,512,401.682    C512,360.959,488.19,323.402,451.34,306.002z M215.432,304.556h-18.525l-7.654-20.857c5.456,0.822,10.938,1.262,16.398,1.296    c0.228,0.001,0.454,0.002,0.681,0.002c5.558,0,11.164-0.445,16.758-1.299L215.432,304.556z M330.182,163.537    c-0.979,1.764-2.977,4.792-6.146,7.272v-24.622l8.862-0.01C334.17,151.666,333.245,158.019,330.182,163.537z M107.536,111.405    c0-56.355,51.881-86.763,100.697-86.763c29.21,0,55.801,10.746,72.955,29.482c16.193,17.686,24.169,42.421,23.292,71.933h-76.378    c-35.146,0-62.629-10.452-84.023-31.952c-1.929-1.938-4.512-2.967-7.142-2.967c-1.31,0-2.632,0.256-3.889,0.783    c-3.779,1.583-6.222,5.298-6.179,9.395c0.087,8.214-1.875,14.405-5.83,18.403c-3.779,3.819-9.14,5.437-13.503,6.102V111.405z     M82.136,164.23c-3.14-5.668-4.007-12.286-2.56-18.031h7.818v24.445C84.704,168.398,82.998,165.787,82.136,164.23z     M107.536,176.795v-30.684c8.208-0.806,19.306-3.619,27.821-12.226c3.722-3.761,6.561-8.208,8.504-13.307    c22.914,17.211,50.652,25.62,84.241,25.62h75.793v30.596c0,2.436-0.133,4.869-0.388,7.292c-0.005,0.063-0.013,0.124-0.017,0.187    c-2.601,24.079-17.606,47.188-41.249,62.957c-17.048,11.376-36.878,17.624-55.906,17.624c-0.185,0-0.372-0.001-0.557-0.002    c-9.711-0.061-19.259-1.609-28.358-4.387c-0.143-0.063-0.287-0.12-0.432-0.175c-0.001-0.001-0.003-0.001-0.004-0.002    c-0.278-0.107-0.56-0.2-0.848-0.282c-0.039-0.011-0.076-0.023-0.114-0.034c-0.211-0.058-0.424-0.105-0.639-0.149    C137.279,247.332,107.536,213.268,107.536,176.795z M206.134,447.231l-2.42,0.004c-4.949,0-9.953-0.054-14.943-0.16l-9.199-25.532    l18.622-96.845h15.95l18.622,96.845l-9.199,25.532c-4.991,0.107-9.994,0.16-14.943,0.16L206.134,447.231z M245.282,446.225    l7.371-20.456c0.613-1.702,0.757-3.539,0.415-5.316L232.88,315.471l12.74-34.7c35.929,5.842,68.351,19.576,93.135,39.368    c-23.493,19.42-38.487,48.764-38.487,81.543c0,13.245,2.469,26.11,7.069,38.054C287.091,442.898,266.316,445.067,245.282,446.225z     M406.119,487.359c-14.214,0-28.294-3.556-40.727-10.289c-14.794-7.987-26.599-19.929-34.397-34.115    c-0.04-0.078-0.081-0.154-0.122-0.231c-6.749-12.364-10.464-26.418-10.464-41.042c0-47.228,38.45-85.65,85.71-85.65    c12.802,0,25.122,2.753,36.62,8.184c29.839,14.089,49.12,44.498,49.12,77.467C491.859,448.924,453.396,487.359,406.119,487.359z"/>
		<path d="M59.757,326.823c1.915,0,3.852-0.546,5.566-1.686l0.17-0.113c4.632-3.079,5.891-9.33,2.812-13.962    c-3.079-4.632-9.329-5.891-13.962-2.811l-0.17,0.113c-4.632,3.078-5.891,9.33-2.812,13.962    C53.3,325.243,56.497,326.823,59.757,326.823z"/>
	</g>
	<g>
		<path d="M440.039,417.965c0,8.382-2.408,15.094-7.254,20.135c-4.817,5.041-10.684,8.383-17.569,9.996v9.488v0.82    c0,5.239-4.449,9.488-9.663,9.488c-5.214,0-9.493-4.249-9.493-9.488v-10.224c-4.279-0.99-8.162-2.576-11.619-4.758    c-3.542-2.266-6.007-4.247-7.424-5.975l-2.068-2.72c-8.785-11.469,5.667-23.703,14.083-14.867c1.02,1.047,2.097,2.351,3.344,3.71    c3.514,3.909,8.672,4.53,12.865,4.53c7.935,0,11.93-3.256,11.93-9.825c0-2.351-1.53-4.164-4.534-5.466    c-3.004-1.274-6.66-2.435-10.938-3.456c-4.309-1.019-8.616-2.406-12.894-4.106c-4.307-1.727-7.962-4.673-10.966-8.865    c-3.004-4.191-4.506-9.515-4.506-15.944c0-6.457,2.068-12.205,6.121-17.388c3.996-5.126,9.776-8.608,16.776-9.968v-2.18v-10.819    c0-5.21,4.279-9.487,9.493-9.487c5.243,0,9.493,4.277,9.493,9.487v3.993v9.147c3.004,0.652,5.753,1.558,8.218,2.747    c2.494,1.161,4.194,2.124,5.158,2.889l1.473,1.274c12.469,9.346,0.425,25.913-10.343,16.85    c-7.283-6.117-23.832-7.476-23.832,3.767c0,2.38,1.105,4.277,3.287,5.722c2.211,1.443,4.931,2.436,8.162,2.917    c3.202,0.482,6.745,1.274,10.627,2.407c3.854,1.133,7.424,2.435,10.627,3.937c3.23,1.501,5.95,4.164,8.161,7.987    C438.934,407.515,440.039,412.274,440.039,417.965L440.039,417.965z"/>
	</g>
</g>















</svg>
