<?xml version="1.0" encoding="UTF-8" standalone="no"?>
<!-- Created with Inkscape (http://www.inkscape.org/) -->

<svg
   xmlns:dc="http://purl.org/dc/elements/1.1/"
   xmlns:cc="http://creativecommons.org/ns#"
   xmlns:rdf="http://www.w3.org/1999/02/22-rdf-syntax-ns#"
   xmlns:svg="http://www.w3.org/2000/svg"
   xmlns="http://www.w3.org/2000/svg"
   xmlns:sodipodi="http://sodipodi.sourceforge.net/DTD/sodipodi-0.dtd"
   xmlns:inkscape="http://www.inkscape.org/namespaces/inkscape"
   version="1.1"
   id="svg2"
   xml:space="preserve"
   width="897.91211"
   height="1084.6044"
   viewBox="0 0 897.91212 1084.6044"
   sodipodi:docname="lady_path.svg"
   inkscape:version="0.92.4 (5da689c313, 2019-01-14)"><metadata
     id="metadata8"><rdf:RDF><cc:Work
         rdf:about=""><dc:format>image/svg+xml</dc:format><dc:type
           rdf:resource="http://purl.org/dc/dcmitype/StillImage" /><dc:title></dc:title></cc:Work></rdf:RDF></metadata><defs
     id="defs6" /><sodipodi:namedview
     pagecolor="#ffffff"
     bordercolor="#666666"
     borderopacity="1"
     objecttolerance="10"
     gridtolerance="10"
     guidetolerance="10"
     inkscape:pageopacity="0"
     inkscape:pageshadow="2"
     inkscape:window-width="3840"
     inkscape:window-height="2096"
     id="namedview4"
     showgrid="false"
     fit-margin-top="0"
     fit-margin-left="0"
     fit-margin-right="0"
     fit-margin-bottom="0"
     inkscape:zoom="0.83674301"
     inkscape:cx="523.5994"
     inkscape:cy="427.98251"
     inkscape:window-x="0"
     inkscape:window-y="27"
     inkscape:window-maximized="1"
     inkscape:current-layer="g12" /><g
     id="g10"
     inkscape:groupmode="layer"
     inkscape:label="ink_ext_XXXXXX"
     transform="matrix(1.3333333,0,0,-1.3333333,-910.82504,1785.8038)"><g
       id="g12"
       transform="matrix(0.1,0,0,0.1,-1120.5634,114.08451)"><path
         d="m 19545.553,5719.9535 c 0,43.6 35.12,76.7 85.85,76.7 50.73,0 85.85,-33.1 85.85,-76.7 0,-42.9 -35.12,-78 -85.85,-78 -50.73,0 -85.85,35.1 -85.85,78 z m 102.76,244.5 c 0,20.2 -19.51,30.6 -43.58,30.6 -27.96,0 -53.98,-16.9 -67.64,-44.2 l -115.77,57.9 c 33.17,62.4 98.86,105.3 202.93,105.3 102.11,0 178.2,-42.9 178.2,-124.2 0,-99.5 -104.06,-117.1 -104.06,-167.1 h -133.98 c 0,78.7 83.9,102.1 83.9,141.7"
         style="fill:#b3a493;fill-opacity:1;fill-rule:nonzero;stroke:none"
         id="path552"
         inkscape:connector-curvature="0" /><path
         d="m 23323.063,10963.354 c 0,43.6 35.1,76.7 85.9,76.7 50.7,0 85.8,-33.1 85.8,-76.7 0,-42.9 -35.1,-78 -85.8,-78 -50.8,0 -85.9,35.1 -85.9,78 z m 102.8,244.5 c 0,20.2 -19.5,30.6 -43.6,30.6 -28,0 -54,-16.9 -67.6,-44.2 l -115.8,57.9 c 33.2,62.4 98.9,105.3 202.9,105.3 102.1,0 178.2,-42.9 178.2,-124.2 0,-99.5 -104,-117.1 -104,-167.1 h -134 c 0,78.7 83.9,102.1 83.9,141.7"
         style="fill:#b3a493;fill-opacity:1;fill-rule:nonzero;stroke:none"
         id="path554"
         inkscape:connector-curvature="0" /><path
         d="m 20965.463,6671.9535 c 0,43.6 35.1,76.8 85.9,76.8 50.7,0 85.8,-33.2 85.8,-76.8 0,-42.9 -35.1,-78 -85.8,-78 -50.8,0 -85.9,35.1 -85.9,78 z m 102.8,244.6 c 0,20.1 -19.5,30.5 -43.6,30.5 -28,0 -54,-16.9 -67.6,-44.2 l -115.8,57.9 c 33.2,62.4 98.9,105.3 202.9,105.3 102.1,0 178.2,-42.9 178.2,-124.2 0,-99.5 -104,-117.1 -104,-167.1 h -134 c 0,78.7 83.9,102.1 83.9,141.8"
         style="fill:#b3a493;fill-opacity:1;fill-rule:nonzero;stroke:none"
         id="path556"
         inkscape:connector-curvature="0" /><path
         d="m 22372.915,11858.584 c 0,43.6 35.1,76.7 85.8,76.7 50.7,0 85.9,-33.1 85.9,-76.7 0,-42.9 -35.2,-78.1 -85.9,-78.1 -50.7,0 -85.8,35.2 -85.8,78.1 z m 102.7,244.5 c 0,20.2 -19.5,30.6 -43.6,30.6 -27.9,0 -53.9,-16.9 -67.6,-44.2 l -115.8,57.9 c 33.2,62.4 98.9,105.3 203,105.3 102.1,0 178.2,-42.9 178.2,-124.2 0,-99.5 -104.1,-117.1 -104.1,-167.1 h -134 c 0,78.7 83.9,102.1 83.9,141.7"
         style="fill:#b3a493;fill-opacity:1;fill-rule:nonzero;stroke:none"
         id="path558"
         inkscape:connector-curvature="0" /><path
         d="m 24514.263,9091.6435 c 0,43.57 35.1,76.74 85.9,76.74 50.7,0 85.8,-33.17 85.8,-76.74 0,-42.93 -35.1,-78.05 -85.8,-78.05 -50.8,0 -85.9,35.12 -85.9,78.05 z m 102.8,244.55 c 0,20.16 -19.5,30.57 -43.6,30.57 -28,0 -54,-16.92 -67.7,-44.23 l -115.7,57.88 c 33.2,62.44 98.8,105.34 202.9,105.34 102.1,0 178.2,-42.9 178.2,-124.2 0,-99.51 -104.1,-117.07 -104.1,-167.15 h -133.9 c 0,78.7 83.9,102.11 83.9,141.79"
         style="fill:#b3a493;fill-opacity:1;fill-rule:nonzero;stroke:none"
         id="path560"
         inkscape:connector-curvature="0" /><path
         d="m 21261.463,8133.2535 c 0,43.6 35.1,76.7 85.8,76.7 50.7,0 85.9,-33.1 85.9,-76.7 0,-42.9 -35.2,-78.1 -85.9,-78.1 -50.7,0 -85.8,35.2 -85.8,78.1 z m 102.7,244.53 c 0,20.15 -19.5,30.56 -43.6,30.56 -27.9,0 -53.9,-16.91 -67.6,-44.22 l -115.8,57.88 c 33.2,62.44 98.9,105.37 203,105.37 102.1,0 178.2,-42.93 178.2,-124.23 0,-99.51 -104.1,-117.07 -104.1,-167.19 h -134 c 0,78.74 83.9,102.15 83.9,141.83"
         style="fill:#b3a493;fill-opacity:1;fill-rule:nonzero;stroke:none"
         id="path562"
         inkscape:connector-curvature="0" /><path
         d="m 20546.563,7056.5535 c 0,43.6 35.1,76.8 85.9,76.8 50.7,0 85.8,-33.2 85.8,-76.8 0,-42.9 -35.1,-78 -85.8,-78 -50.8,0 -85.9,35.1 -85.9,78 z m 102.8,244.6 c 0,20.1 -19.5,30.5 -43.6,30.5 -28,0 -54,-16.9 -67.6,-44.2 l -115.8,57.9 c 33.2,62.4 98.9,105.4 202.9,105.4 102.1,0 178.2,-43 178.2,-124.3 0,-99.5 -104,-117 -104,-167.1 h -134 c 0,78.7 83.9,102.1 83.9,141.8"
         style="fill:#b3a493;fill-opacity:1;fill-rule:nonzero;stroke:none"
         id="path564"
         inkscape:connector-curvature="0" /><path
         d="m 18161.052,8638.1635 c 0,43.57 35.12,76.75 85.85,76.75 50.73,0 85.85,-33.18 85.85,-76.75 0,-42.93 -35.12,-78.05 -85.85,-78.05 -50.73,0 -85.85,35.12 -85.85,78.05 z m 102.76,244.54 c 0,20.17 -19.51,30.57 -43.57,30.57 -27.97,0 -53.99,-16.91 -67.64,-44.22 l -115.78,57.88 c 33.17,62.43 98.86,105.36 202.93,105.36 102.11,0 178.21,-42.93 178.21,-124.22 0,-99.51 -104.07,-117.07 -104.07,-167.15 h -133.98 c 0,78.69 83.9,102.11 83.9,141.78"
         style="fill:#b3a493;fill-opacity:1;fill-rule:nonzero;stroke:none"
         id="path566"
         inkscape:connector-curvature="0" /><path
         d="m 23974.963,8102.5535 c 0,0 -256.3,183.57 -260.5,262.85 -4.1,79.28 259.5,-67.84 335.4,-242.65 l -74.9,-20.2"
         style="fill:#ffffff;fill-opacity:1;fill-rule:nonzero;stroke:none"
         id="path620"
         inkscape:connector-curvature="0" /><path
         d="m 23506.363,7849.5535 c 0,0 -1.2,5 -1,5.1 0.1,0 1.1,-5.1 1,-5.1"
         style="fill:#ff7b78;fill-opacity:1;fill-rule:nonzero;stroke:none"
         id="path622"
         inkscape:connector-curvature="0" /><path
         d="m 23305.163,8262.4535 c 920.947,-223.83 -398.391,764.9676 0,0"
         style="fill:#ffffff;fill-opacity:1;fill-rule:nonzero;stroke:none"
         id="path638"
         inkscape:connector-curvature="0"
         sodipodi:nodetypes="cc" /><path
         d="m 21881.259,6641.0958 c 0,387.6513 296.795,682.7714 726.347,682.7714 428.704,0 725.501,-295.1201 725.501,-682.7714 0,-381.9568 -296.797,-694.4266 -725.501,-694.4266 -429.552,0 -726.347,312.4698 -726.347,694.4266 z m 869.248,2175.8117 c 0,179.3663 -164.887,271.9863 -368.67,271.9863 -236.76,0 -456.609,-150.5397 -572.451,-393.5218 l -978.327,514.9688 c 280.731,555.543 835.426,937.2322 1715.665,937.2322 863.328,0 1506.81,-381.6892 1506.81,-1105.0326 0,-885.3603 -880.242,-1041.5963 -880.242,-1487.1678 h -1132.22 c 0,700.2107 709.435,908.4944 709.435,1261.5349"
         style="fill:#b3a493;fill-opacity:1;fill-rule:nonzero;stroke:none;stroke-width:8.6736517"
         id="path560-3"
         inkscape:connector-curvature="0" /><path
         d="m 20248.007,4565.1378 c 0,249.5225 191.126,439.4847 467.744,439.4847 276.071,0 467.199,-189.9622 467.199,-439.4847 0,-245.8571 -191.128,-446.987 -467.199,-446.987 -276.618,0 -467.744,201.1299 -467.744,446.987 z m 559.767,1400.5224 c 0,115.453 -106.182,175.071 -237.411,175.071 -152.466,0 -294.042,-96.899 -368.64,-253.302 l -630.011,331.475 c 180.782,357.59 537.987,603.275 1104.833,603.275 555.955,0 970.336,-245.685 970.336,-711.285 0,-569.887 -566.847,-670.453 -566.847,-957.257 h -729.113 c 0,450.711 456.853,584.778 456.853,812.023"
         style="fill:#b3a493;fill-opacity:1;fill-rule:nonzero;stroke:none;stroke-width:5.58429337"
         id="path560-3-6"
         inkscape:connector-curvature="0" /><path
         d="m 20040.884,8070.2217 c 0,119.6649 92.061,210.7658 225.303,210.7658 132.978,0 225.041,-91.1009 225.041,-210.7658 0,-117.907 -92.063,-214.3639 -225.041,-214.3639 -133.242,0 -225.303,96.4569 -225.303,214.3639 z m 269.629,671.6558 c 0,55.369 -51.146,83.96 -114.356,83.96 -73.441,0 -141.635,-46.47 -177.567,-121.477 l -303.465,158.967 c 87.079,171.492 259.139,289.316 532.177,289.316 267.793,0 467.393,-117.824 467.393,-341.115 0,-273.304 -273.039,-321.533 -273.039,-459.076 h -351.2 c 0,216.149 220.057,280.444 220.057,389.425"
         style="fill:#b3a493;fill-opacity:1;fill-rule:nonzero;stroke:none;stroke-width:2.68396354"
         id="path560-3-7"
         inkscape:connector-curvature="0" /><path
         d="m 18983.211,6636.089 c 0,119.665 92.061,210.766 225.303,210.766 132.978,0 225.041,-91.101 225.041,-210.766 0,-117.907 -92.063,-214.363 -225.041,-214.363 -133.242,0 -225.303,96.456 -225.303,214.363 z m 269.629,671.656 c 0,55.369 -51.146,83.96 -114.356,83.96 -73.441,0 -141.635,-46.47 -177.567,-121.477 l -303.465,158.967 c 87.079,171.492 259.139,289.316 532.177,289.316 267.793,0 467.393,-117.824 467.393,-341.115 0,-273.304 -273.039,-321.533 -273.039,-459.076 h -351.2 c 0,216.149 220.057,280.444 220.057,389.425"
         style="fill:#b3a493;fill-opacity:1;fill-rule:nonzero;stroke:none;stroke-width:2.68396354"
         id="path560-3-7-5"
         inkscape:connector-curvature="0" /><path
         d="m 19331.736,8285.0328 c 0,39.4339 30.972,69.4559 75.798,69.4559 44.738,0 75.71,-30.022 75.71,-69.4559 0,-38.855 -30.972,-70.641 -75.71,-70.641 -44.826,0 -75.798,31.786 -75.798,70.641 z m 90.711,221.3369 c 0,18.247 -17.207,27.668 -38.473,27.668 -24.708,0 -47.65,-15.313 -59.739,-40.031 l -102.094,52.386 c 29.296,56.513 87.182,95.341 179.04,95.341 90.093,0 157.244,-38.828 157.244,-112.411 0,-90.065 -91.858,-105.958 -91.858,-151.284 h -118.154 c 0,71.23 74.034,92.418 74.034,128.331"
         style="fill:#b3a493;fill-opacity:1;fill-rule:nonzero;stroke:none;stroke-width:0.89366972"
         id="path560-3-7-3"
         inkscape:connector-curvature="0" /><path
         d="m 20263.923,9499.5631 c 0,39.434 30.972,69.456 75.798,69.456 44.738,0 75.71,-30.022 75.71,-69.456 0,-38.855 -30.972,-70.6411 -75.71,-70.6411 -44.826,0 -75.798,31.7861 -75.798,70.6411 z m 90.711,221.337 c 0,18.247 -17.207,27.668 -38.473,27.668 -24.708,0 -47.65,-15.313 -59.739,-40.031 l -102.094,52.386 c 29.296,56.513 87.182,95.341 179.04,95.341 90.093,0 157.244,-38.828 157.244,-112.411 0,-90.065 -91.858,-105.958 -91.858,-151.284 H 20280.6 c 0,71.23 74.034,92.418 74.034,128.331"
         style="fill:#b3a493;fill-opacity:1;fill-rule:nonzero;stroke:none;stroke-width:0.89366972"
         id="path560-3-7-3-5"
         inkscape:connector-curvature="0" /><path
         d="m 21733.908,10888.879 c 0,39.434 30.972,69.456 75.798,69.456 44.738,0 75.71,-30.022 75.71,-69.456 0,-38.855 -30.972,-70.641 -75.71,-70.641 -44.826,0 -75.798,31.786 -75.798,70.641 z m 90.711,221.337 c 0,18.247 -17.207,27.668 -38.473,27.668 -24.708,0 -47.65,-15.313 -59.739,-40.031 l -102.094,52.386 c 29.296,56.513 87.182,95.341 179.04,95.341 90.093,0 157.244,-38.828 157.244,-112.411 0,-90.065 -91.858,-105.958 -91.858,-151.284 h -118.154 c 0,71.23 74.034,92.418 74.034,128.331"
         style="fill:#b3a493;fill-opacity:1;fill-rule:nonzero;stroke:none;stroke-width:0.89366972"
         id="path560-3-7-3-6"
         inkscape:connector-curvature="0" /><path
         d="m 23858.217,6980.8685 c 0,39.434 30.972,69.456 75.798,69.456 44.738,0 75.71,-30.022 75.71,-69.456 0,-38.855 -30.972,-70.641 -75.71,-70.641 -44.826,0 -75.798,31.786 -75.798,70.641 z m 90.711,221.337 c 0,18.247 -17.207,27.668 -38.473,27.668 -24.708,0 -47.65,-15.313 -59.739,-40.031 l -102.094,52.386 c 29.296,56.513 87.182,95.341 179.04,95.341 90.093,0 157.244,-38.828 157.244,-112.411 0,-90.065 -91.858,-105.958 -91.858,-151.284 h -118.154 c 0,71.23 74.034,92.418 74.034,128.331"
         style="fill:#b3a493;fill-opacity:1;fill-rule:nonzero;stroke:none;stroke-width:0.89366972"
         id="path560-3-7-3-2"
         inkscape:connector-curvature="0" /><path
         d="m 23571.39,10234.556 c 0,39.434 30.972,69.456 75.798,69.456 44.738,0 75.71,-30.022 75.71,-69.456 0,-38.855 -30.972,-70.641 -75.71,-70.641 -44.826,0 -75.798,31.786 -75.798,70.641 z m 90.711,221.337 c 0,18.247 -17.207,27.668 -38.473,27.668 -24.708,0 -47.65,-15.313 -59.739,-40.031 l -102.094,52.386 c 29.296,56.513 87.182,95.341 179.04,95.341 90.093,0 157.244,-38.828 157.244,-112.411 0,-90.065 -91.858,-105.958 -91.858,-151.284 h -118.154 c 0,71.23 74.034,92.418 74.034,128.331"
         style="fill:#b3a493;fill-opacity:1;fill-rule:nonzero;stroke:none;stroke-width:0.89366972"
         id="path560-3-7-3-9"
         inkscape:connector-curvature="0" /></g></g></svg>